<?xml version="1.0" encoding="utf-8"?>
<!-- Generator: Adobe Illustrator 15.0.0, SVG Export Plug-In . SVG Version: 6.00 Build 0)  -->
<!DOCTYPE svg PUBLIC "-//W3C//DTD SVG 1.1//EN" "http://www.w3.org/Graphics/SVG/1.1/DTD/svg11.dtd">
<svg version="1.1" xmlns="http://www.w3.org/2000/svg" xmlns:xlink="http://www.w3.org/1999/xlink" x="0px" y="0px"
	 width="472.832px" height="574.422px" viewBox="0 0 472.832 574.422" enable-background="new 0 0 472.832 574.422"
	 xml:space="preserve">
<g id="logo">
	<path fill-rule="evenodd" clip-rule="evenodd" stroke="#231F20" stroke-width="0.25" stroke-miterlimit="10" d="M394.153,215.596
		c-86.36,0-164.694,41.316-173.694,41.316c-9.5,0,14.292-25.27,23.837-44.786c3.608-7.376,87.373-153.89,91.849-168.228
		s13.922-14.133,13.478-26.954c-0.143-4.111-2.003-5.013-5.245-7.584c-2.962-2.35-4.953-6.583-7.665-6.583
		c-12.462,0-13.245,17.17-15.117,21.943c-15.637,39.858-77.303,147.025-101.456,181.187c-14.859,21.016-52.492,78.336-63.003,88.504
		s-34.47,31.002-49.002,31.002c-26.479,0-77.008-84.096-77.008-104.667c0-17.134,22.005-0.333,22.005-20.339
		c0-11.893-14.02-14.706-18.839-24.328s-10.333-23-19-23c-11.5,0-6.916,19.588-14,34.667c-1.778,3.784,1.694,12.658,4.17,17.33
		c2.494,4.707,4.132,10.977,4.755,14.097c1.912,9.576,6.404,36.008,10.721,48.985c0.779,2.342,0.401,7.418,5.648,12.501
		c4.658,4.513,6.749,15.763,10.062,21.377c6.178,10.467,41.206,53.376,64.143,53.376c6.725,0,14.566-0.438,19.758-3.138
		c-2.266,30.97-7.87,50.729-7.87,109.258c0,29.055-20.681,67.363-20.681,80.711c0,5.471,5.24,30.179,17.465,30.179
		c17.72,0,22.618-15.861,27.088-22.412c3.413-5.002,39.687-54.078,41.601-57.24s2.136-5.696,4.81-5.522
		c46.101,29.744,66.363,29.076,118.776,29.076c39.284,0,129.344-29.587,129.344-71.875c0-7.659-4.54-31.391-43.958-47.203
		c-28.667-11.5-55.157-10.833-75.833-10.833c-0.564,0-1.167-0.886-1.167-4.333c0-7.525,159.25-63.167,159.25-121.917
		C469.375,233.912,436.625,215.596,394.153,215.596z M183.146,437.653c-5.407-7.347-12.141-18.227-18.229-18.227
		c-3.245,0-3.422,5.111-5.911,8.444c-2.893,3.875-6.489,3.467-6.489,8.397c0,12.612,12.996,26.066,12.996,34.308
		c0,3.513-10.788,12.467-15.814,23.719c-3.674,8.225-17.792,23.752-25.558,32.185c-2.823,3.066-6.477,3.42-6.477-4.304
		c0-11.902,5.804-17.825,14.001-55.213c13.123-59.852,7.439-108.669,27.089-129.77c12.918-13.872,22.952-23.1,28.883-28.281
		c8.383-7.324,56.488-40.833,117.488-51.167c-0.461,0.677,4.114-1.48-0.666,5c-10.82,14.668-29.283,42.404-45.244,68.39
		c-22.796,37.115-62.004,94.196-67.187,104.959C189.893,440.529,184.304,439.226,183.146,437.653z M297.35,354.859
		c-20.734,12.88-38.123,13.252-38.123,29.678c0,11.375,3.449,15.478,8.231,19.541c7.673,6.52,37.589,4.673,53.91,4.673
		s87.401,7.362,87.401,32.284c0,13.99-55.343,46.327-110.4,46.327c-35.33,0-60.294-9.532-71.998-12.003
		c-7.045-1.487-14.115-2.848-21.233-3.939c-14.909-10.497,9.133-31.266,16.342-41.124c42.477-64.389,91.312-146.217,107.165-176.387
		c33.091-18.795,117.301-22.481,117.301,3.158c0,14.912-52.486,46.564-81.13,63.104C335.769,336.945,309.395,347.377,297.35,354.859
		z"/>
</g>
</svg>
